#!OML:ASF F:\VICON\USERDATA\INSTALL\rory3\rory3.ASF
:FULLY-SPECIFIED
:DEGREES
418
root -2.64996 17.6087 9.28557 -180.089 -1.51215 176.635
lowerback 10.9733 1.56609 -1.86305
upperback 0.167936 1.75592 -0.393238
thorax -6.02868 0.881539 0.359202
lowerneck -21.0447 -2.46701 -12.413
upperneck 34.6565 -3.76496 6.74804
head 16.3148 -3.05921 4.15229
rclavicle -5.04416e-015 1.19271e-015
rhumerus -36.0838 -17.1785 -75.8874
rradius 33.547
rwrist 9.83883
rhand -13.2837 9.23891
rfingers 7.12502
rthumb 12.8197 -20.3474
lclavicle -5.04416e-015 1.19271e-015
lhumerus -32.2514 8.83069 78.562
lradius 31.6531
lwrist -5.22397
lhand -21.5235 24.3224
lfingers 7.12502
lthumb 4.86888 54.2464
rfemur -11.541 -2.88053 21.0887
rtibia 39.1983
rfoot -22.7078 -3.11658
rtoes 9.05429
lfemur -7.03212 0.166333 -23.3292
ltibia 26.7974
lfoot -19.793 -14.3721
ltoes -5.98718
419
root -2.70972 17.6032 9.29346 -180.173 -1.18809 176.682
lowerback 10.9911 1.63264 -1.51147
upperback 0.228847 1.88755 -0.388166
thorax -5.96552 0.93471 0.146342
lowerneck -21.0748 -2.37023 -12.3599
upperneck 34.5766 -3.55356 6.63084
head 16.2485 -2.96922 4.13161
rclavicle 7.45443e-016 0
rhumerus -35.9854 -17.1477 -75.6904
rradius 33.5022
rwrist 9.81425
rhand -13.1187 9.42015
rfingers 7.12502
rthumb 12.9788 -20.1562
lclavicle 7.45443e-016 0
lhumerus -32.2915 9.43047 78.604
lradius 31.4233
lwrist -5.28887
lhand -21.7373 23.7588
lfingers 7.12502
lthumb 4.66244 53.6875
rfemur -11.2631 -2.52756 20.9088
rtibia 38.8074
rfoot -22.8953 -2.91114
rtoes 8.48793
lfemur -6.9314 0.078172 -23.505
ltibia 26.9028
lfoot -20.2996 -13.8701
ltoes -7.05943
420
root -2.76771 17.6006 9.30105 -180.284 -0.878918 176.753
lowerback 11.0219 1.68001 -1.17307
upperback 0.333737 1.99116 -0.358304
thorax -5.86294 0.974059 -0.0279328
lowerneck -21.1089 -2.2738 -12.1495
upperneck 34.4232 -3.29379 6.2753
head 16.1334 -2.86284 3.98491
rclavicle -9.14409e-015 8.34896e-015
rhumerus -35.7357 -17.003 -75.5776
rradius 33.345
rwrist 9.83962
rhand -13.1613 9.28865
rfingers 7.12502
rthumb 12.9377 -20.2903
lclavicle -9.14409e-015 8.34896e-015
lhumerus -32.3216 10.0013 78.7111
lradius 31.2792
lwrist -5.1353
lhand -22.1051 23.5744
lfingers 7.12502
lthumb 4.30724 53.5106
rfemur -10.9825 -2.42369 20.6946
rtibia 38.421
rfoot -23.0832 -2.2733
rtoes 8.91747
lfemur -6.8307 0.0409756 -23.6187
ltibia 27.0463
lfoot -20.8214 -13.444
ltoes -8.55336
421
root -2.82561 17.6029 9.31075 -180.303 -0.506452 176.803
lowerback 10.9943 1.76761 -0.885103
upperback 0.390265 2.14614 -0.310898
thorax -5.78035 1.04224 -0.162787
lowerneck -21.0967 -2.27005 -12.1967
upperneck 34.3345 -3.17378 6.08872
head 16.0699 -2.83574 3.93207
rclavicle 6.63444e-015 -2.78299e-015
rhumerus -35.5041 -16.7775 -75.4143
rradius 33.1581
rwrist 9.85151
rhand -13.2663 8.91514
rfingers 7.12502
rthumb 12.8365 -20.6702
lclavicle 6.63444e-015 -2.78299e-015
lhumerus -32.3779 10.4025 78.9032
lradius 31.1988
lwrist -5.03155
lhand -22.0442 23.9084
lfingers 7.12502
lthumb 4.36608 53.8434
rfemur -10.842 -2.31857 20.4319
rtibia 38.0708
rfoot -23.2277 -1.75909
rtoes 9.03098
lfemur -6.87911 0.0861255 -23.7404
ltibia 27.2305
lfoot -21.3609 -13.0753
ltoes -10.0265
422
root -2.88312 17.6038 9.32283 -180.268 -0.282055 176.896
lowerback 10.9334 1.819 -0.576584
upperback 0.435286 2.25859 -0.228785
thorax -5.69055 1.09036 -0.265032
lowerneck -21.1943 -2.28689 -12.3734
upperneck 34.399 -3.11271 6.07577
head 16.1223 -2.83771 3.97143
rclavicle -2.62893e-014 -3.57812e-015
rhumerus -35.2683 -16.7394 -75.1179
rradius 32.9024
rwrist 10.0801
rhand -13.3585 9.03083
rfingers 7.12502
rthumb 12.7476 -20.56
lclavicle -2.62893e-014 -3.57812e-015
lhumerus -32.4244 10.707 79.1612
lradius 31.1227
lwrist -4.97333
lhand -21.7287 24.3278
lfingers 7.12502
lthumb 4.67077 54.2563
rfemur -10.7819 -2.40781 20.2115
rtibia 37.7904
rfoot -23.3185 -1.30294
rtoes 8.00673
lfemur -7.04789 0.143072 -23.7977
ltibia 27.4527
lfoot -21.6359 -13.1573
ltoes -9.89541
423
root -2.93925 17.6018 9.33528 -180.289 -0.243595 177.076
lowerback 10.9827 1.78684 -0.194527
upperback 0.451293 2.26914 -0.125231
thorax -5.69047 1.08666 -0.374337
lowerneck -21.1221 -2.25706 -12.4479
upperneck 34.36 -3.02446 6.02113
head 16.0754 -2.81809 3.97593
rclavicle 8.54774e-015 7.95139e-015
rhumerus -35.0597 -16.4772 -74.89
rradius 32.7193
rwrist 9.91804
rhand -13.4193 9.17708
rfingers 7.12502
rthumb 12.6889 -20.4174
lclavicle 8.54774e-015 7.95139e-015
lhumerus -32.5958 10.9294 79.4047
lradius 31.1121
lwrist -4.8427
lhand -21.8572 24.1638
lfingers 7.12502
lthumb 4.54667 54.095
rfemur -10.6884 -2.62371 20.1055
rtibia 37.583
rfoot -23.2426 -0.825267
rtoes 7.38807
lfemur -7.18217 0.233757 -23.7244
ltibia 27.7031
lfoot -21.9167 -13.4266
ltoes -10.1019
424
root -2.99356 17.598 9.34909 -180.327 -0.0752053 177.309
lowerback 11.1528 1.777 0.16351
upperback 0.389234 2.30984 -0.0107901
thorax -5.84151 1.09839 -0.469285
lowerneck -20.9417 -2.16944 -12.3425
upperneck 34.3382 -2.8968 5.81382
head 15.9992 -2.78745 3.88761
rclavicle 1.98785e-016 1.78906e-014
rhumerus -35.0101 -16.1137 -74.7218
rradius 32.735
rwrist 9.64916
rhand -13.3364 8.89413
rfingers 7.12502
rthumb 12.7689 -20.6954
lclavicle 1.98785e-016 1.78906e-014
lhumerus -32.8347 11.2619 79.5546
lradius 31.0127
lwrist -4.90935
lhand -21.9974 23.8961
lfingers 7.12502
lthumb 4.41126 53.8302
rfemur -10.6486 -2.70762 20.0918
rtibia 37.4221
rfoot -23.0646 -0.335847
rtoes 7.30364
lfemur -7.30432 0.437248 -23.5685
ltibia 28.0063
lfoot -22.4508 -13.4691
ltoes -12.1839
425
root -3.04495 17.6029 9.36434 -180.28 0.134451 177.429
lowerback 11.2473 1.71305 0.31147
upperback 0.321762 2.39762 0.107329
thorax -5.96464 1.20042 -0.454039
lowerneck -20.88 -2.07471 -12.2206
upperneck 34.4067 -2.73668 5.55789
head 15.9916 -2.75206 3.78407
rclavicle 2.18166e-014 2.22639e-014
rhumerus -34.8839 -15.9864 -74.4468
rradius 32.628
rwrist 9.73485
rhand -13.3525 8.70473
rfingers 7.12502
rthumb 12.7534 -20.8858
lclavicle 2.18166e-014 2.22639e-014
lhumerus -32.9336 11.654 79.7559
lradius 30.7683
lwrist -5.13649
lhand -22.0778 23.5576
lfingers 7.12502
lthumb 4.33359 53.4932
rfemur -10.7318 -2.85577 19.9683
rtibia 37.2667
rfoot -22.9718 0.0864445
rtoes 6.6481
lfemur -7.56279 0.666881 -23.5216
ltibia 28.3735
lfoot -23.0232 -13.5109
ltoes -14.4073
426
root -3.09527 17.6087 9.37713 -180.248 0.205295 177.705
lowerback 11.236 1.67936 0.6193
upperback 0.345206 2.40522 0.282593
thorax -5.92871 1.19925 -0.443942
lowerneck -20.9347 -2.005 -12.1704
upperneck 34.4958 -2.62177 5.46004
head 16.0315 -2.71948 3.756
rclavicle -2.38542e-015 -7.95139e-015
rhumerus -34.575 -15.9763 -74.1256
rradius 32.4178
rwrist 10.073
rhand -13.3333 8.81732
rfingers 7.12502
rthumb 12.7719 -20.772
lclavicle -2.38542e-015 -7.95139e-015
lhumerus -32.9586 11.7901 80.088
lradius 30.6329
lwrist -5.10796
lhand -22.2886 23.4408
lfingers 7.12502
lthumb 4.13004 53.3805
rfemur -10.7349 -3.02605 20.0441
rtibia 37.0741
rfoot -22.834 0.31614
rtoes 5.78107
lfemur -7.88968 1.02046 -23.277
ltibia 28.8188
lfoot -23.6488 -13.8037
ltoes -16.5719
427
root -3.14358 17.6125 9.3914 -180.23 0.19727 178.119
lowerback 11.3446 1.60776 1.00632
upperback 0.296881 2.37853 0.519644
thorax -6.03586 1.17835 -0.41365
lowerneck -20.9289 -1.95775 -12.2043
upperneck 34.6095 -2.54832 5.40329
head 16.0771 -2.71624 3.75196
rclavicle -1.7344e-014 1.59028e-015
rhumerus -34.3683 -15.7638 -73.8067
rradius 32.2489
rwrist 10.2421
rhand -13.3073 8.89811
rfingers 7.12502
rthumb 12.7969 -20.6897
lclavicle -1.7344e-014 1.59028e-015
lhumerus -33.1808 11.8237 80.4645
lradius 30.6285
lwrist -5.04155
lhand -22.3889 23.7972
lfingers 7.12502
lthumb 4.0332 53.7387
rfemur -10.6827 -3.16891 20.3022
rtibia 36.8364
rfoot -22.6738 0.477177
rtoes 5.29368
lfemur -8.26283 1.30661 -22.8401
ltibia 29.3297
lfoot -24.0444 -14.4361
ltoes -17.543
428
root -3.18858 17.6171 9.40802 -180.183 0.0656183 178.304
lowerback 11.4701 1.53871 1.13034
upperback 0.24223 2.31759 0.683262
thorax -6.16707 1.14652 -0.307136
lowerneck -20.9923 -1.93758 -12.2389
upperneck 34.7368 -2.49967 5.34772
head 16.1496 -2.72098 3.7448
rclavicle 1.87355e-014 3.18055e-015
rhumerus -34.1816 -15.6373 -73.4819
rradius 32.1315
rwrist 10.2011
rhand -13.1177 8.98075
rfingers 7.12502
rthumb 12.9797 -20.5955
lclavicle 1.87355e-014 3.18055e-015
lhumerus -33.3049 11.8125 80.8341
lradius 30.5927
lwrist -5.07437
lhand -22.3646 23.9032
lfingers 7.12502
lthumb 4.05673 53.8443
rfemur -10.636 -3.23855 20.3475
rtibia 36.5605
rfoot -22.5485 0.456323
rtoes 5.25266
lfemur -8.70279 1.4201 -22.596
ltibia 29.8896
lfoot -24.0678 -15.5283
ltoes -17.4305
429
root -3.23108 17.6205 9.42353 -180.159 -0.0855391 178.442
lowerback 11.522 1.58647 1.20313
upperback 0.273798 2.24049 0.825745
thorax -6.16526 1.04012 -0.179429
lowerneck -21.0853 -1.93671 -12.1287
upperneck 34.7329 -2.47499 5.23852
head 16.1637 -2.70641 3.68289
rclavicle 3.88127e-014 -7.15625e-015
rhumerus -33.9045 -15.6742 -73.202
rradius 32.0647
rwrist 9.98573
rhand -13.1533 9.06069
rfingers 7.12502
rthumb 12.9455 -20.5177
lclavicle 3.88127e-014 -7.15625e-015
lhumerus -33.3133 11.7275 81.2311
lradius 30.6339
lwrist -5.32207
lhand -22.0506 23.728
lfingers 7.12502
lthumb 4.35991 53.6631
rfemur -10.5412 -3.23443 20.3655
rtibia 36.2679
rfoot -22.4562 0.428574
rtoes 6.11434
lfemur -9.0979 1.4135 -22.3647
ltibia 30.4421
lfoot -24.1725 -16.5677
ltoes -18.5098
430
root -3.27445 17.6273 9.43965 -180.154 -0.165116 178.558
lowerback 11.6319 1.54398 1.20049
upperback 0.272839 2.19057 0.964464
thorax -6.23426 1.01536 -0.0270777
lowerneck -21.0768 -1.9273 -12.044
upperneck 34.6891 -2.46239 5.17111
head 16.1358 -2.6954 3.63985
rclavicle 8.39865e-015 -1.82882e-014
rhumerus -33.7 -15.7063 -72.9157
rradius 32.037
rwrist 9.9201
rhand -13.2817 9.08246
rfingers 7.12502
rthumb 12.8216 -20.5038
lclavicle 8.39865e-015 -1.82882e-014
lhumerus -33.4814 11.6586 81.547
lradius 30.7798
lwrist -5.89365
lhand -21.5911 23.5241
lfingers 7.12502
lthumb 4.80361 53.4497
rfemur -10.4662 -3.10983 20.3667
rtibia 36.0008
rfoot -22.3389 0.3126
rtoes 6.77979
lfemur -9.46263 1.29148 -22.1518
ltibia 30.9382
lfoot -24.4935 -17.2228
ltoes -20.4196
431
root -3.31936 17.6373 9.45182 -180.201 -0.249395 178.603
lowerback 11.7913 1.49132 1.15995
upperback 0.249617 2.12159 1.04573
thorax -6.35364 0.981934 0.0881376
lowerneck -21.0394 -1.8638 -11.9315
upperneck 34.7525 -2.42459 5.13387
head 16.15 -2.67966 3.61121
rclavicle -2.02263e-014 3.18055e-015
rhumerus -33.5524 -15.8093 -72.6228
rradius 31.9378
rwrist 9.9677
rhand -13.4381 9.07282
rfingers 7.12502
rthumb 12.6708 -20.5228
lclavicle -2.02263e-014 3.18055e-015
lhumerus -33.7057 11.4694 81.8142
lradius 30.9215
lwrist -6.39667
lhand -21.3447 23.2894
lfingers 7.12502
lthumb 5.0415 53.2094
rfemur -10.3107 -2.96096 20.277
rtibia 35.7405
rfoot -22.1722 0.160387
rtoes 7.27774
lfemur -9.74134 1.09268 -21.9827
ltibia 31.4146
lfoot -24.5315 -17.7924
ltoes -21.0801
432
root -3.36573 17.6427 9.46277 -180.249 -0.293663 178.69
lowerback 11.8804 1.4549 1.16423
upperback 0.272064 2.07639 1.13371
thorax -6.38338 0.958876 0.184103
lowerneck -21.0634 -1.82515 -11.8176
upperneck 34.8295 -2.41076 5.09111
head 16.189 -2.67284 3.57602
rclavicle -7.05686e-015 -5.56597e-015
rhumerus -33.3936 -16.0104 -72.3487
rradius 31.9139
rwrist 9.96143
rhand -13.6471 9.14172
rfingers 7.12502
rthumb 12.4694 -20.4663
lclavicle -7.05686e-015 -5.56597e-015
lhumerus -33.8314 11.097 82.1933
lradius 31.104
lwrist -6.32522
lhand -21.3847 23.2197
lfingers 7.12502
lthumb 5.00287 53.1406
rfemur -10.1532 -2.82883 20.2208
rtibia 35.4593
rfoot -21.9491 0.00432593
rtoes 7.1576
lfemur -9.96582 0.956354 -21.732
ltibia 31.9048
lfoot -24.3424 -18.2942
ltoes -20.6551
